<?xml version='1.0' encoding='ASCII' standalone='yes'?>
<svg xmlns:xlink="http://www.w3.org/1999/xlink" xmlns="http://www.w3.org/2000/svg" version="1.1" width="470" viewBox="0 0 470 220" height="220">
  <g>
    <g transform="translate(-35, -90) scale(0.666666666667) ">
      <clipPath id="p.0">
        <path d="m0 0l800.0 0l0 600.0l-800.0 0l0 -600.0z" clip-rule="nonzero"/>
      </clipPath>
      <g clip-path="url(#p.0)" fill="none" stroke="none">
        <path fill="#000000" fill-opacity="0.0" d="m0 0l800.0 0l0 600.0l-800.0 0z" fill-rule="evenodd"/>
        <path fill="#cfe2f3" d="m219.60892 210.65749l61.19687 0l0 62.01573l-61.19687 0z" fill-rule="evenodd"/>
        <path stroke="#000000" stroke-width="1.0" stroke-linejoin="round" stroke-linecap="butt" d="m219.60892 210.65749l61.19687 0l0 62.01573l-61.19687 0z" fill-rule="evenodd"/>
        <path fill="#cfe2f3" d="m187.20998 241.85695l61.196854 0l0 62.015762l-61.196854 0z" fill-rule="evenodd"/>
        <path stroke="#000000" stroke-width="1.0" stroke-linejoin="round" stroke-linecap="butt" d="m187.20998 241.85695l61.196854 0l0 62.015762l-61.196854 0z" fill-rule="evenodd"/>
        <path fill="#cfe2f3" d="m172.0105 256.65747l61.196854 0l0 62.015747l-61.196854 0z" fill-rule="evenodd"/>
        <path stroke="#000000" stroke-width="1.0" stroke-linejoin="round" stroke-linecap="butt" d="m172.0105 256.65747l61.196854 0l0 62.015747l-61.196854 0z" fill-rule="evenodd"/>
        <path fill="#000000" d="m211.45108 222.9787l0 0c0 -0.9365082 0.7070923 -1.695694 1.5793457 -1.695694l0 0c0.41886902 0 0.82058716 0.1786499 1.1167755 0.49665833c0.29618835 0.31800842 0.4625702 0.74931335 0.4625702 1.1990356l0 0c0 0.9365082 -0.7070923 1.6957092 -1.5793457 1.6957092l0 0c-0.8722534 0 -1.5793457 -0.75920105 -1.5793457 -1.6957092z" fill-rule="evenodd"/>
        <path stroke="#000000" stroke-width="1.0" stroke-linejoin="round" stroke-linecap="butt" d="m211.45108 222.9787l0 0c0 -0.9365082 0.7070923 -1.695694 1.5793457 -1.695694l0 0c0.41886902 0 0.82058716 0.1786499 1.1167755 0.49665833c0.29618835 0.31800842 0.4625702 0.74931335 0.4625702 1.1990356l0 0c0 0.9365082 -0.7070923 1.6957092 -1.5793457 1.6957092l0 0c-0.8722534 0 -1.5793457 -0.75920105 -1.5793457 -1.6957092z" fill-rule="evenodd"/>
        <path fill="#000000" d="m205.41518 228.9353l0 0c0 -0.9365082 0.7070923 -1.695694 1.5793457 -1.695694l0 0c0.41886902 0 0.82058716 0.1786499 1.1167755 0.49665833c0.29618835 0.31800842 0.46258545 0.74931335 0.46258545 1.1990356l0 0c0 0.9365082 -0.70710754 1.6957092 -1.579361 1.6957092l0 0c-0.8722534 0 -1.5793457 -0.75920105 -1.5793457 -1.6957092z" fill-rule="evenodd"/>
        <path stroke="#000000" stroke-width="1.0" stroke-linejoin="round" stroke-linecap="butt" d="m205.41518 228.9353l0 0c0 -0.9365082 0.7070923 -1.695694 1.5793457 -1.695694l0 0c0.41886902 0 0.82058716 0.1786499 1.1167755 0.49665833c0.29618835 0.31800842 0.46258545 0.74931335 0.46258545 1.1990356l0 0c0 0.9365082 -0.70710754 1.6957092 -1.579361 1.6957092l0 0c-0.8722534 0 -1.5793457 -0.75920105 -1.5793457 -1.6957092z" fill-rule="evenodd"/>
        <path fill="#000000" d="m199.37927 234.8919l0 0c0 -0.9365082 0.70710754 -1.6957092 1.579361 -1.6957092l0 0c0.41886902 0 0.8205719 0.17866516 1.1167603 0.49665833c0.29618835 0.31800842 0.46258545 0.74931335 0.46258545 1.1990509l0 0c0 0.9365082 -0.7070923 1.695694 -1.5793457 1.695694l0 0c-0.8722534 0 -1.579361 -0.7591858 -1.579361 -1.695694z" fill-rule="evenodd"/>
        <path stroke="#000000" stroke-width="1.0" stroke-linejoin="round" stroke-linecap="butt" d="m199.37927 234.8919l0 0c0 -0.9365082 0.70710754 -1.6957092 1.579361 -1.6957092l0 0c0.41886902 0 0.8205719 0.17866516 1.1167603 0.49665833c0.29618835 0.31800842 0.46258545 0.74931335 0.46258545 1.1990509l0 0c0 0.9365082 -0.7070923 1.695694 -1.5793457 1.695694l0 0c-0.8722534 0 -1.579361 -0.7591858 -1.579361 -1.695694z" fill-rule="evenodd"/>
        <path fill="#000000" d="m267.45108 278.9787l0 0c0 -0.9364929 0.7070923 -1.6957092 1.5793457 -1.6957092l0 0c0.41888428 0 0.82058716 0.17868042 1.1167603 0.49667358c0.2962036 0.31799316 0.46258545 0.7492981 0.46258545 1.1990356l0 0c0 0.93652344 -0.7070923 1.6957092 -1.5793457 1.6957092l0 0c-0.8722534 0 -1.5793457 -0.7591858 -1.5793457 -1.6957092z" fill-rule="evenodd"/>
        <path stroke="#000000" stroke-width="1.0" stroke-linejoin="round" stroke-linecap="butt" d="m267.45108 278.9787l0 0c0 -0.9364929 0.7070923 -1.6957092 1.5793457 -1.6957092l0 0c0.41888428 0 0.82058716 0.17868042 1.1167603 0.49667358c0.2962036 0.31799316 0.46258545 0.7492981 0.46258545 1.1990356l0 0c0 0.93652344 -0.7070923 1.6957092 -1.5793457 1.6957092l0 0c-0.8722534 0 -1.5793457 -0.7591858 -1.5793457 -1.6957092z" fill-rule="evenodd"/>
        <path fill="#000000" d="m261.4152 284.9353l0 0c0 -0.93652344 0.7070923 -1.6957092 1.5793457 -1.6957092l0 0c0.41885376 0 0.82058716 0.1786499 1.1167603 0.49667358c0.2961731 0.31799316 0.46258545 0.7492981 0.46258545 1.1990356l0 0c0 0.93652344 -0.7070923 1.6957092 -1.5793457 1.6957092l0 0c-0.8722534 0 -1.5793457 -0.7591858 -1.5793457 -1.6957092z" fill-rule="evenodd"/>
        <path stroke="#000000" stroke-width="1.0" stroke-linejoin="round" stroke-linecap="butt" d="m261.4152 284.9353l0 0c0 -0.93652344 0.7070923 -1.6957092 1.5793457 -1.6957092l0 0c0.41885376 0 0.82058716 0.1786499 1.1167603 0.49667358c0.2961731 0.31799316 0.46258545 0.7492981 0.46258545 1.1990356l0 0c0 0.93652344 -0.7070923 1.6957092 -1.5793457 1.6957092l0 0c-0.8722534 0 -1.5793457 -0.7591858 -1.5793457 -1.6957092z" fill-rule="evenodd"/>
        <path fill="#000000" d="m255.37927 290.8919l0 0c0 -0.93652344 0.7070923 -1.6957092 1.5793457 -1.6957092l0 0c0.41888428 0 0.82058716 0.1786499 1.1167908 0.49667358c0.2961731 0.31799316 0.46255493 0.7492981 0.46255493 1.1990356l0 0c0 0.9364929 -0.7070923 1.6957092 -1.5793457 1.6957092l0 0c-0.8722534 0 -1.5793457 -0.7592163 -1.5793457 -1.6957092z" fill-rule="evenodd"/>
        <path stroke="#000000" stroke-width="1.0" stroke-linejoin="round" stroke-linecap="butt" d="m255.37927 290.8919l0 0c0 -0.93652344 0.7070923 -1.6957092 1.5793457 -1.6957092l0 0c0.41888428 0 0.82058716 0.1786499 1.1167908 0.49667358c0.2961731 0.31799316 0.46255493 0.7492981 0.46255493 1.1990356l0 0c0 0.9364929 -0.7070923 1.6957092 -1.5793457 1.6957092l0 0c-0.8722534 0 -1.5793457 -0.7592163 -1.5793457 -1.6957092z" fill-rule="evenodd"/>
        <path fill="#cfe2f3" d="m396.3828 156.49738l34.4252 0l0 35.590546l-34.4252 0z" fill-rule="evenodd"/>
        <path stroke="#000000" stroke-width="1.0" stroke-linejoin="round" stroke-linecap="butt" d="m396.3828 156.49738l34.4252 0l0 35.590546l-34.4252 0z" fill-rule="evenodd"/>
        <path fill="#cfe2f3" d="m378.15857 174.41013l34.4252 0l0 35.590546l-34.4252 0z" fill-rule="evenodd"/>
        <path stroke="#000000" stroke-width="1.0" stroke-linejoin="round" stroke-linecap="butt" d="m378.15857 174.41013l34.4252 0l0 35.590546l-34.4252 0z" fill-rule="evenodd"/>
        <path fill="#cfe2f3" d="m369.60892 182.90764l34.4252 0l0 35.590546l-34.4252 0z" fill-rule="evenodd"/>
        <path stroke="#000000" stroke-width="1.0" stroke-linejoin="round" stroke-linecap="butt" d="m369.60892 182.90764l34.4252 0l0 35.590546l-34.4252 0z" fill-rule="evenodd"/>
        <path fill="#000000" d="m391.80252 163.57819l0 0c0 -0.53775024 0.39779663 -0.9736786 0.88848877 -0.9736786l0 0c0.23562622 0 0.4616394 0.10258484 0.6282654 0.28518677c0.16662598 0.18260193 0.2602234 0.43025208 0.2602234 0.6884918l0 0c0 0.53775024 -0.39779663 0.9736786 -0.88848877 0.9736786l0 0c-0.49069214 0 -0.88848877 -0.43592834 -0.88848877 -0.9736786z" fill-rule="evenodd"/>
        <path stroke="#000000" stroke-width="1.0" stroke-linejoin="round" stroke-linecap="butt" d="m391.80252 163.57819l0 0c0 -0.53775024 0.39779663 -0.9736786 0.88848877 -0.9736786l0 0c0.23562622 0 0.4616394 0.10258484 0.6282654 0.28518677c0.16662598 0.18260193 0.2602234 0.43025208 0.2602234 0.6884918l0 0c0 0.53775024 -0.39779663 0.9736786 -0.88848877 0.9736786l0 0c-0.49069214 0 -0.88848877 -0.43592834 -0.88848877 -0.9736786z" fill-rule="evenodd"/>
        <path fill="#000000" d="m388.40692 166.99849l0 0c0 -0.53775024 0.39779663 -0.9736786 0.88848877 -0.9736786l0 0c0.23562622 0 0.4616394 0.10258484 0.6282654 0.28518677c0.16662598 0.18260193 0.2602234 0.43025208 0.2602234 0.6884918l0 0c0 0.53775024 -0.39779663 0.9736786 -0.88848877 0.9736786l0 0c-0.49069214 0 -0.88848877 -0.43592834 -0.88848877 -0.9736786z" fill-rule="evenodd"/>
        <path stroke="#000000" stroke-width="1.0" stroke-linejoin="round" stroke-linecap="butt" d="m388.40692 166.99849l0 0c0 -0.53775024 0.39779663 -0.9736786 0.88848877 -0.9736786l0 0c0.23562622 0 0.4616394 0.10258484 0.6282654 0.28518677c0.16662598 0.18260193 0.2602234 0.43025208 0.2602234 0.6884918l0 0c0 0.53775024 -0.39779663 0.9736786 -0.88848877 0.9736786l0 0c-0.49069214 0 -0.88848877 -0.43592834 -0.88848877 -0.9736786z" fill-rule="evenodd"/>
        <path fill="#000000" d="m385.01132 170.4188l0 0c0 -0.53775024 0.39779663 -0.9736786 0.88848877 -0.9736786l0 0c0.23562622 0 0.4616394 0.10258484 0.6282654 0.2851715c0.16662598 0.18260193 0.2602234 0.43026733 0.2602234 0.6885071l0 0c0 0.537735 -0.39779663 0.97366333 -0.88848877 0.97366333l0 0c-0.49069214 0 -0.88848877 -0.43592834 -0.88848877 -0.97366333z" fill-rule="evenodd"/>
        <path stroke="#000000" stroke-width="1.0" stroke-linejoin="round" stroke-linecap="butt" d="m385.01132 170.4188l0 0c0 -0.53775024 0.39779663 -0.9736786 0.88848877 -0.9736786l0 0c0.23562622 0 0.4616394 0.10258484 0.6282654 0.2851715c0.16662598 0.18260193 0.2602234 0.43026733 0.2602234 0.6885071l0 0c0 0.537735 -0.39779663 0.97366333 -0.88848877 0.97366333l0 0c-0.49069214 0 -0.88848877 -0.43592834 -0.88848877 -0.97366333z" fill-rule="evenodd"/>
        <path fill="#000000" d="m423.30228 195.72981l0 0c0 -0.53775024 0.3977661 -0.9736786 0.88848877 -0.9736786l0 0c0.23562622 0 0.4616089 0.10258484 0.62823486 0.28518677c0.16662598 0.18260193 0.2602539 0.43025208 0.2602539 0.6884918l0 0c0 0.53775024 -0.39779663 0.9736786 -0.88848877 0.9736786l0 0c-0.49072266 0 -0.88848877 -0.43592834 -0.88848877 -0.9736786z" fill-rule="evenodd"/>
        <path stroke="#000000" stroke-width="1.0" stroke-linejoin="round" stroke-linecap="butt" d="m423.30228 195.72981l0 0c0 -0.53775024 0.3977661 -0.9736786 0.88848877 -0.9736786l0 0c0.23562622 0 0.4616089 0.10258484 0.62823486 0.28518677c0.16662598 0.18260193 0.2602539 0.43025208 0.2602539 0.6884918l0 0c0 0.53775024 -0.39779663 0.9736786 -0.88848877 0.9736786l0 0c-0.49072266 0 -0.88848877 -0.43592834 -0.88848877 -0.9736786z" fill-rule="evenodd"/>
        <path fill="#000000" d="m419.90665 199.15012l0 0c0 -0.53775024 0.39779663 -0.9736786 0.8885193 -0.9736786l0 0c0.23562622 0 0.4616089 0.10258484 0.62823486 0.28518677c0.16662598 0.18258667 0.2602539 0.43025208 0.2602539 0.6884918l0 0c0 0.537735 -0.39779663 0.9736786 -0.88848877 0.9736786l0 0c-0.49072266 0 -0.8885193 -0.4359436 -0.8885193 -0.9736786z" fill-rule="evenodd"/>
        <path stroke="#000000" stroke-width="1.0" stroke-linejoin="round" stroke-linecap="butt" d="m419.90665 199.15012l0 0c0 -0.53775024 0.39779663 -0.9736786 0.8885193 -0.9736786l0 0c0.23562622 0 0.4616089 0.10258484 0.62823486 0.28518677c0.16662598 0.18258667 0.2602539 0.43025208 0.2602539 0.6884918l0 0c0 0.537735 -0.39779663 0.9736786 -0.88848877 0.9736786l0 0c-0.49072266 0 -0.8885193 -0.4359436 -0.8885193 -0.9736786z" fill-rule="evenodd"/>
        <path fill="#000000" d="m416.51105 202.5704l0 0c0 -0.537735 0.39779663 -0.97366333 0.8885193 -0.97366333l0 0c0.23562622 0 0.4616089 0.10256958 0.62823486 0.2851715c0.16662598 0.18260193 0.2602539 0.43026733 0.2602539 0.6884918l0 0c0 0.53775024 -0.39779663 0.9736786 -0.88848877 0.9736786l0 0c-0.49072266 0 -0.8885193 -0.43592834 -0.8885193 -0.9736786z" fill-rule="evenodd"/>
        <path stroke="#000000" stroke-width="1.0" stroke-linejoin="round" stroke-linecap="butt" d="m416.51105 202.5704l0 0c0 -0.537735 0.39779663 -0.97366333 0.8885193 -0.97366333l0 0c0.23562622 0 0.4616089 0.10256958 0.62823486 0.2851715c0.16662598 0.18260193 0.2602539 0.43026733 0.2602539 0.6884918l0 0c0 0.53775024 -0.39779663 0.9736786 -0.88848877 0.9736786l0 0c-0.49072266 0 -0.8885193 -0.43592834 -0.8885193 -0.9736786z" fill-rule="evenodd"/>
        <path fill="#cfe2f3" d="m396.3828 230.01181l34.4252 0l0 35.590546l-34.4252 0z" fill-rule="evenodd"/>
        <path stroke="#000000" stroke-width="1.0" stroke-linejoin="round" stroke-linecap="butt" d="m396.3828 230.01181l34.4252 0l0 35.590546l-34.4252 0z" fill-rule="evenodd"/>
        <path fill="#cfe2f3" d="m378.15857 247.92456l34.4252 0l0 35.590546l-34.4252 0z" fill-rule="evenodd"/>
        <path stroke="#000000" stroke-width="1.0" stroke-linejoin="round" stroke-linecap="butt" d="m378.15857 247.92456l34.4252 0l0 35.590546l-34.4252 0z" fill-rule="evenodd"/>
        <path fill="#cfe2f3" d="m369.60892 256.4221l34.4252 0l0 35.590546l-34.4252 0z" fill-rule="evenodd"/>
        <path stroke="#000000" stroke-width="1.0" stroke-linejoin="round" stroke-linecap="butt" d="m369.60892 256.4221l34.4252 0l0 35.590546l-34.4252 0z" fill-rule="evenodd"/>
        <path fill="#000000" d="m391.80252 237.09262l0 0c0 -0.53775024 0.39779663 -0.9736786 0.88848877 -0.9736786l0 0c0.23562622 0 0.4616394 0.10258484 0.6282654 0.28518677c0.16662598 0.18260193 0.2602234 0.43025208 0.2602234 0.6884918l0 0c0 0.53775024 -0.39779663 0.9736786 -0.88848877 0.9736786l0 0c-0.49069214 0 -0.88848877 -0.43592834 -0.88848877 -0.9736786z" fill-rule="evenodd"/>
        <path stroke="#000000" stroke-width="1.0" stroke-linejoin="round" stroke-linecap="butt" d="m391.80252 237.09262l0 0c0 -0.53775024 0.39779663 -0.9736786 0.88848877 -0.9736786l0 0c0.23562622 0 0.4616394 0.10258484 0.6282654 0.28518677c0.16662598 0.18260193 0.2602234 0.43025208 0.2602234 0.6884918l0 0c0 0.53775024 -0.39779663 0.9736786 -0.88848877 0.9736786l0 0c-0.49069214 0 -0.88848877 -0.43592834 -0.88848877 -0.9736786z" fill-rule="evenodd"/>
        <path fill="#000000" d="m388.40692 240.51292l0 0c0 -0.53775024 0.39779663 -0.9736786 0.88848877 -0.9736786l0 0c0.23562622 0 0.4616394 0.10258484 0.6282654 0.28518677c0.16662598 0.18260193 0.2602234 0.43025208 0.2602234 0.6884918l0 0c0 0.53775024 -0.39779663 0.9736786 -0.88848877 0.9736786l0 0c-0.49069214 0 -0.88848877 -0.43592834 -0.88848877 -0.9736786z" fill-rule="evenodd"/>
        <path stroke="#000000" stroke-width="1.0" stroke-linejoin="round" stroke-linecap="butt" d="m388.40692 240.51292l0 0c0 -0.53775024 0.39779663 -0.9736786 0.88848877 -0.9736786l0 0c0.23562622 0 0.4616394 0.10258484 0.6282654 0.28518677c0.16662598 0.18260193 0.2602234 0.43025208 0.2602234 0.6884918l0 0c0 0.53775024 -0.39779663 0.9736786 -0.88848877 0.9736786l0 0c-0.49069214 0 -0.88848877 -0.43592834 -0.88848877 -0.9736786z" fill-rule="evenodd"/>
        <path fill="#000000" d="m385.01132 243.93323l0 0c0 -0.53775024 0.39779663 -0.9736786 0.88848877 -0.9736786l0 0c0.23562622 0 0.4616394 0.10258484 0.6282654 0.2851715c0.16662598 0.18260193 0.2602234 0.43026733 0.2602234 0.6885071l0 0c0 0.537735 -0.39779663 0.9736786 -0.88848877 0.9736786l0 0c-0.49069214 0 -0.88848877 -0.4359436 -0.88848877 -0.9736786z" fill-rule="evenodd"/>
        <path stroke="#000000" stroke-width="1.0" stroke-linejoin="round" stroke-linecap="butt" d="m385.01132 243.93323l0 0c0 -0.53775024 0.39779663 -0.9736786 0.88848877 -0.9736786l0 0c0.23562622 0 0.4616394 0.10258484 0.6282654 0.2851715c0.16662598 0.18260193 0.2602234 0.43026733 0.2602234 0.6885071l0 0c0 0.537735 -0.39779663 0.9736786 -0.88848877 0.9736786l0 0c-0.49069214 0 -0.88848877 -0.4359436 -0.88848877 -0.9736786z" fill-rule="evenodd"/>
        <path fill="#000000" d="m423.30228 269.24423l0 0c0 -0.5377197 0.3977661 -0.97366333 0.88848877 -0.97366333l0 0c0.23562622 0 0.4616089 0.10256958 0.62823486 0.28518677c0.16662598 0.18258667 0.2602539 0.43026733 0.2602539 0.68847656l0 0c0 0.53775024 -0.39779663 0.97369385 -0.88848877 0.97369385l0 0c-0.49072266 0 -0.88848877 -0.4359436 -0.88848877 -0.97369385z" fill-rule="evenodd"/>
        <path stroke="#000000" stroke-width="1.0" stroke-linejoin="round" stroke-linecap="butt" d="m423.30228 269.24423l0 0c0 -0.5377197 0.3977661 -0.97366333 0.88848877 -0.97366333l0 0c0.23562622 0 0.4616089 0.10256958 0.62823486 0.28518677c0.16662598 0.18258667 0.2602539 0.43026733 0.2602539 0.68847656l0 0c0 0.53775024 -0.39779663 0.97369385 -0.88848877 0.97369385l0 0c-0.49072266 0 -0.88848877 -0.4359436 -0.88848877 -0.97369385z" fill-rule="evenodd"/>
        <path fill="#000000" d="m419.90665 272.66455l0 0c0 -0.53775024 0.39779663 -0.97369385 0.8885193 -0.97369385l0 0c0.23562622 0 0.4616089 0.1026001 0.62823486 0.28518677c0.16662598 0.18261719 0.2602539 0.43026733 0.2602539 0.6885071l0 0c0 0.53775024 -0.39779663 0.97366333 -0.88848877 0.97366333l0 0c-0.49072266 0 -0.8885193 -0.4359131 -0.8885193 -0.97366333z" fill-rule="evenodd"/>
        <path stroke="#000000" stroke-width="1.0" stroke-linejoin="round" stroke-linecap="butt" d="m419.90665 272.66455l0 0c0 -0.53775024 0.39779663 -0.97369385 0.8885193 -0.97369385l0 0c0.23562622 0 0.4616089 0.1026001 0.62823486 0.28518677c0.16662598 0.18261719 0.2602539 0.43026733 0.2602539 0.6885071l0 0c0 0.53775024 -0.39779663 0.97366333 -0.88848877 0.97366333l0 0c-0.49072266 0 -0.8885193 -0.4359131 -0.8885193 -0.97366333z" fill-rule="evenodd"/>
        <path fill="#000000" d="m416.51105 276.08484l0 0c0 -0.53775024 0.39779663 -0.97366333 0.8885193 -0.97366333l0 0c0.23562622 0 0.4616089 0.10256958 0.62823486 0.28518677c0.16662598 0.18258667 0.2602539 0.43023682 0.2602539 0.68847656l0 0c0 0.53775024 -0.39779663 0.97369385 -0.88848877 0.97369385l0 0c-0.49072266 0 -0.8885193 -0.4359436 -0.8885193 -0.97369385z" fill-rule="evenodd"/>
        <path stroke="#000000" stroke-width="1.0" stroke-linejoin="round" stroke-linecap="butt" d="m416.51105 276.08484l0 0c0 -0.53775024 0.39779663 -0.97366333 0.8885193 -0.97366333l0 0c0.23562622 0 0.4616089 0.10256958 0.62823486 0.28518677c0.16662598 0.18258667 0.2602539 0.43023682 0.2602539 0.68847656l0 0c0 0.53775024 -0.39779663 0.97369385 -0.88848877 0.97369385l0 0c-0.49072266 0 -0.8885193 -0.4359436 -0.8885193 -0.97369385z" fill-rule="evenodd"/>
        <path fill="#cfe2f3" d="m396.3828 329.9357l34.4252 0l0 35.590546l-34.4252 0z" fill-rule="evenodd"/>
        <path stroke="#000000" stroke-width="1.0" stroke-linejoin="round" stroke-linecap="butt" d="m396.3828 329.9357l34.4252 0l0 35.590546l-34.4252 0z" fill-rule="evenodd"/>
        <path fill="#cfe2f3" d="m378.15857 347.84845l34.4252 0l0 35.590546l-34.4252 0z" fill-rule="evenodd"/>
        <path stroke="#000000" stroke-width="1.0" stroke-linejoin="round" stroke-linecap="butt" d="m378.15857 347.84845l34.4252 0l0 35.590546l-34.4252 0z" fill-rule="evenodd"/>
        <path fill="#cfe2f3" d="m369.60892 356.34595l34.4252 0l0 35.590576l-34.4252 0z" fill-rule="evenodd"/>
        <path stroke="#000000" stroke-width="1.0" stroke-linejoin="round" stroke-linecap="butt" d="m369.60892 356.34595l34.4252 0l0 35.590576l-34.4252 0z" fill-rule="evenodd"/>
        <path fill="#000000" d="m391.80252 337.0165l0 0c0 -0.53775024 0.39779663 -0.97369385 0.88848877 -0.97369385l0 0c0.23562622 0 0.4616394 0.1026001 0.6282654 0.28518677c0.16662598 0.18261719 0.2602234 0.43026733 0.2602234 0.6885071l0 0c0 0.53775024 -0.39779663 0.97366333 -0.88848877 0.97366333l0 0c-0.49069214 0 -0.88848877 -0.4359131 -0.88848877 -0.97366333z" fill-rule="evenodd"/>
        <path stroke="#000000" stroke-width="1.0" stroke-linejoin="round" stroke-linecap="butt" d="m391.80252 337.0165l0 0c0 -0.53775024 0.39779663 -0.97369385 0.88848877 -0.97369385l0 0c0.23562622 0 0.4616394 0.1026001 0.6282654 0.28518677c0.16662598 0.18261719 0.2602234 0.43026733 0.2602234 0.6885071l0 0c0 0.53775024 -0.39779663 0.97366333 -0.88848877 0.97366333l0 0c-0.49069214 0 -0.88848877 -0.4359131 -0.88848877 -0.97366333z" fill-rule="evenodd"/>
        <path fill="#000000" d="m388.40692 340.4368l0 0c0 -0.53775024 0.39779663 -0.97366333 0.88848877 -0.97366333l0 0c0.23562622 0 0.4616394 0.10256958 0.6282654 0.28518677c0.16662598 0.18258667 0.2602234 0.43023682 0.2602234 0.68847656l0 0c0 0.53775024 -0.39779663 0.97369385 -0.88848877 0.97369385l0 0c-0.49069214 0 -0.88848877 -0.4359436 -0.88848877 -0.97369385z" fill-rule="evenodd"/>
        <path stroke="#000000" stroke-width="1.0" stroke-linejoin="round" stroke-linecap="butt" d="m388.40692 340.4368l0 0c0 -0.53775024 0.39779663 -0.97366333 0.88848877 -0.97366333l0 0c0.23562622 0 0.4616394 0.10256958 0.6282654 0.28518677c0.16662598 0.18258667 0.2602234 0.43023682 0.2602234 0.68847656l0 0c0 0.53775024 -0.39779663 0.97369385 -0.88848877 0.97369385l0 0c-0.49069214 0 -0.88848877 -0.4359436 -0.88848877 -0.97369385z" fill-rule="evenodd"/>
        <path fill="#000000" d="m385.01132 343.85712l0 0c0 -0.53775024 0.39779663 -0.97369385 0.88848877 -0.97369385l0 0c0.23562622 0 0.4616394 0.1026001 0.6282654 0.28518677c0.16662598 0.18261719 0.2602234 0.43026733 0.2602234 0.6885071l0 0c0 0.53775024 -0.39779663 0.97366333 -0.88848877 0.97366333l0 0c-0.49069214 0 -0.88848877 -0.4359131 -0.88848877 -0.97366333z" fill-rule="evenodd"/>
        <path stroke="#000000" stroke-width="1.0" stroke-linejoin="round" stroke-linecap="butt" d="m385.01132 343.85712l0 0c0 -0.53775024 0.39779663 -0.97369385 0.88848877 -0.97369385l0 0c0.23562622 0 0.4616394 0.1026001 0.6282654 0.28518677c0.16662598 0.18261719 0.2602234 0.43026733 0.2602234 0.6885071l0 0c0 0.53775024 -0.39779663 0.97366333 -0.88848877 0.97366333l0 0c-0.49069214 0 -0.88848877 -0.4359131 -0.88848877 -0.97366333z" fill-rule="evenodd"/>
        <path fill="#000000" d="m423.30228 369.16812l0 0c0 -0.53775024 0.3977661 -0.97366333 0.88848877 -0.97366333l0 0c0.23562622 0 0.4616089 0.10256958 0.62823486 0.28518677c0.16662598 0.18258667 0.2602539 0.43023682 0.2602539 0.68847656l0 0c0 0.53775024 -0.39779663 0.97369385 -0.88848877 0.97369385l0 0c-0.49072266 0 -0.88848877 -0.4359436 -0.88848877 -0.97369385z" fill-rule="evenodd"/>
        <path stroke="#000000" stroke-width="1.0" stroke-linejoin="round" stroke-linecap="butt" d="m423.30228 369.16812l0 0c0 -0.53775024 0.3977661 -0.97366333 0.88848877 -0.97366333l0 0c0.23562622 0 0.4616089 0.10256958 0.62823486 0.28518677c0.16662598 0.18258667 0.2602539 0.43023682 0.2602539 0.68847656l0 0c0 0.53775024 -0.39779663 0.97369385 -0.88848877 0.97369385l0 0c-0.49072266 0 -0.88848877 -0.4359436 -0.88848877 -0.97369385z" fill-rule="evenodd"/>
        <path fill="#000000" d="m419.90665 372.58844l0 0c0 -0.53775024 0.39779663 -0.97369385 0.8885193 -0.97369385l0 0c0.23562622 0 0.4616089 0.1026001 0.62823486 0.28518677c0.16662598 0.18261719 0.2602539 0.43026733 0.2602539 0.6885071l0 0c0 0.53775024 -0.39779663 0.97366333 -0.88848877 0.97366333l0 0c-0.49072266 0 -0.8885193 -0.4359131 -0.8885193 -0.97366333z" fill-rule="evenodd"/>
        <path stroke="#000000" stroke-width="1.0" stroke-linejoin="round" stroke-linecap="butt" d="m419.90665 372.58844l0 0c0 -0.53775024 0.39779663 -0.97369385 0.8885193 -0.97369385l0 0c0.23562622 0 0.4616089 0.1026001 0.62823486 0.28518677c0.16662598 0.18261719 0.2602539 0.43026733 0.2602539 0.6885071l0 0c0 0.53775024 -0.39779663 0.97366333 -0.88848877 0.97366333l0 0c-0.49072266 0 -0.8885193 -0.4359131 -0.8885193 -0.97366333z" fill-rule="evenodd"/>
        <path fill="#000000" d="m416.51105 376.00873l0 0c0 -0.53775024 0.39779663 -0.97366333 0.8885193 -0.97366333l0 0c0.23562622 0 0.4616089 0.10256958 0.62823486 0.28518677c0.16662598 0.18258667 0.2602539 0.43023682 0.2602539 0.68847656l0 0c0 0.53775024 -0.39779663 0.97369385 -0.88848877 0.97369385l0 0c-0.49072266 0 -0.8885193 -0.4359436 -0.8885193 -0.97369385z" fill-rule="evenodd"/>
        <path stroke="#000000" stroke-width="1.0" stroke-linejoin="round" stroke-linecap="butt" d="m416.51105 376.00873l0 0c0 -0.53775024 0.39779663 -0.97366333 0.8885193 -0.97366333l0 0c0.23562622 0 0.4616089 0.10256958 0.62823486 0.28518677c0.16662598 0.18258667 0.2602539 0.43023682 0.2602539 0.68847656l0 0c0 0.53775024 -0.39779663 0.97369385 -0.88848877 0.97369385l0 0c-0.49072266 0 -0.8885193 -0.4359436 -0.8885193 -0.97369385z" fill-rule="evenodd"/>
        <path fill="#000000" d="m394.30884 303.61078l0 0c-0.66223145 -0.6622009 -0.6990967 -1.6990356 -0.082336426 -2.315796l0 0c0.2961731 -0.2961731 0.7065735 -0.45388794 1.1408386 -0.43844604c0.43429565 0.0154418945 0.8569641 0.20275879 1.1749573 0.5207825l0 0c0.66223145 0.6622009 0.69906616 1.6990356 0.08230591 2.315796l0 0c-0.61672974 0.61672974 -1.6535645 0.579895 -2.3157654 -0.082336426z" fill-rule="evenodd"/>
        <path stroke="#000000" stroke-width="1.0" stroke-linejoin="round" stroke-linecap="butt" d="m394.30884 303.61078l0 0c-0.66223145 -0.6622009 -0.6990967 -1.6990356 -0.082336426 -2.315796l0 0c0.2961731 -0.2961731 0.7065735 -0.45388794 1.1408386 -0.43844604c0.43429565 0.0154418945 0.8569641 0.20275879 1.1749573 0.5207825l0 0c0.66223145 0.6622009 0.69906616 1.6990356 0.08230591 2.315796l0 0c-0.61672974 0.61672974 -1.6535645 0.579895 -2.3157654 -0.082336426z" fill-rule="evenodd"/>
        <path fill="#000000" d="m394.25293 312.0907l0 0c-0.66223145 -0.66223145 -0.69906616 -1.6990356 -0.082336426 -2.315796l0 0c0.2962036 -0.2961731 0.7065735 -0.45391846 1.1408691 -0.43847656c0.43429565 0.0154418945 0.8569336 0.2027893 1.1749268 0.5207825l0 0c0.66223145 0.66223145 0.6990967 1.6990356 0.082336426 2.315796l0 0c-0.61676025 0.61676025 -1.653595 0.579895 -2.315796 -0.08230591z" fill-rule="evenodd"/>
        <path stroke="#000000" stroke-width="1.0" stroke-linejoin="round" stroke-linecap="butt" d="m394.25293 312.0907l0 0c-0.66223145 -0.66223145 -0.69906616 -1.6990356 -0.082336426 -2.315796l0 0c0.2962036 -0.2961731 0.7065735 -0.45391846 1.1408691 -0.43847656c0.43429565 0.0154418945 0.8569336 0.2027893 1.1749268 0.5207825l0 0c0.66223145 0.66223145 0.6990967 1.6990356 0.082336426 2.315796l0 0c-0.61676025 0.61676025 -1.653595 0.579895 -2.315796 -0.08230591z" fill-rule="evenodd"/>
        <path fill="#000000" d="m394.19702 320.5706l0 0c-0.6622009 -0.66223145 -0.69906616 -1.6990356 -0.08230591 -2.315796l0 0c0.2961731 -0.2961731 0.70654297 -0.45388794 1.1408386 -0.43844604c0.43429565 0.0154418945 0.8569336 0.20275879 1.1749573 0.52075195l0 0c0.6622009 0.66223145 0.69906616 1.6990356 0.08230591 2.315796l0 0c-0.61676025 0.61676025 -1.6535645 0.57992554 -2.315796 -0.08230591z" fill-rule="evenodd"/>
        <path stroke="#000000" stroke-width="1.0" stroke-linejoin="round" stroke-linecap="butt" d="m394.19702 320.5706l0 0c-0.6622009 -0.66223145 -0.69906616 -1.6990356 -0.08230591 -2.315796l0 0c0.2961731 -0.2961731 0.70654297 -0.45388794 1.1408386 -0.43844604c0.43429565 0.0154418945 0.8569336 0.20275879 1.1749573 0.52075195l0 0c0.6622009 0.66223145 0.69906616 1.6990356 0.08230591 2.315796l0 0c-0.61676025 0.61676025 -1.6535645 0.57992554 -2.315796 -0.08230591z" fill-rule="evenodd"/>
        <path fill="#cfe2f3" d="m652.0551 212.5971l61.19684 0l0 62.015747l-61.19684 0z" fill-rule="evenodd"/>
        <path stroke="#000000" stroke-width="1.0" stroke-linejoin="round" stroke-linecap="butt" d="m652.0551 212.5971l61.19684 0l0 62.015747l-61.19684 0z" fill-rule="evenodd"/>
        <path fill="#cfe2f3" d="m619.6562 243.79659l61.19684 0l0 62.015762l-61.19684 0z" fill-rule="evenodd"/>
        <path stroke="#000000" stroke-width="1.0" stroke-linejoin="round" stroke-linecap="butt" d="m619.6562 243.79659l61.19684 0l0 62.015762l-61.19684 0z" fill-rule="evenodd"/>
        <path fill="#cfe2f3" d="m604.45667 258.5971l61.1969 0l0 62.015747l-61.1969 0z" fill-rule="evenodd"/>
        <path stroke="#000000" stroke-width="1.0" stroke-linejoin="round" stroke-linecap="butt" d="m604.45667 258.5971l61.1969 0l0 62.015747l-61.1969 0z" fill-rule="evenodd"/>
        <path fill="#000000" d="m643.8973 224.91833l0 0c0 -0.9365082 0.7070923 -1.695694 1.5793457 -1.695694l0 0c0.41888428 0 0.82055664 0.1786499 1.1167603 0.49665833c0.2962036 0.31800842 0.46258545 0.74931335 0.46258545 1.1990356l0 0c0 0.9365082 -0.7070923 1.6957092 -1.5793457 1.6957092l0 0c-0.8722534 0 -1.5793457 -0.75920105 -1.5793457 -1.6957092z" fill-rule="evenodd"/>
        <path stroke="#000000" stroke-width="1.0" stroke-linejoin="round" stroke-linecap="butt" d="m643.8973 224.91833l0 0c0 -0.9365082 0.7070923 -1.695694 1.5793457 -1.695694l0 0c0.41888428 0 0.82055664 0.1786499 1.1167603 0.49665833c0.2962036 0.31800842 0.46258545 0.74931335 0.46258545 1.1990356l0 0c0 0.9365082 -0.7070923 1.6957092 -1.5793457 1.6957092l0 0c-0.8722534 0 -1.5793457 -0.75920105 -1.5793457 -1.6957092z" fill-rule="evenodd"/>
        <path fill="#000000" d="m637.8614 230.87494l0 0c0 -0.9365082 0.7070923 -1.6957092 1.5793457 -1.6957092l0 0c0.41888428 0 0.82055664 0.17866516 1.1167603 0.49665833c0.2962036 0.31800842 0.46258545 0.74931335 0.46258545 1.1990509l0 0c0 0.9365082 -0.7070923 1.695694 -1.5793457 1.695694l0 0c-0.8722534 0 -1.5793457 -0.7591858 -1.5793457 -1.695694z" fill-rule="evenodd"/>
        <path stroke="#000000" stroke-width="1.0" stroke-linejoin="round" stroke-linecap="butt" d="m637.8614 230.87494l0 0c0 -0.9365082 0.7070923 -1.6957092 1.5793457 -1.6957092l0 0c0.41888428 0 0.82055664 0.17866516 1.1167603 0.49665833c0.2962036 0.31800842 0.46258545 0.74931335 0.46258545 1.1990509l0 0c0 0.9365082 -0.7070923 1.695694 -1.5793457 1.695694l0 0c-0.8722534 0 -1.5793457 -0.7591858 -1.5793457 -1.695694z" fill-rule="evenodd"/>
        <path fill="#000000" d="m631.8255 236.83154l0 0c0 -0.93652344 0.7070923 -1.6957092 1.5793457 -1.6957092l0 0c0.41882324 0 0.82055664 0.1786499 1.1167603 0.49665833c0.29614258 0.31800842 0.46258545 0.74931335 0.46258545 1.1990509l0 0c0 0.9365082 -0.7070923 1.695694 -1.5793457 1.695694l0 0c-0.8722534 0 -1.5793457 -0.7591858 -1.5793457 -1.695694z" fill-rule="evenodd"/>
        <path stroke="#000000" stroke-width="1.0" stroke-linejoin="round" stroke-linecap="butt" d="m631.8255 236.83154l0 0c0 -0.93652344 0.7070923 -1.6957092 1.5793457 -1.6957092l0 0c0.41882324 0 0.82055664 0.1786499 1.1167603 0.49665833c0.29614258 0.31800842 0.46258545 0.74931335 0.46258545 1.1990509l0 0c0 0.9365082 -0.7070923 1.695694 -1.5793457 1.695694l0 0c-0.8722534 0 -1.5793457 -0.7591858 -1.5793457 -1.695694z" fill-rule="evenodd"/>
        <path fill="#000000" d="m699.8973 280.91833l0 0c0 -0.9364929 0.7070923 -1.6957092 1.5793457 -1.6957092l0 0c0.41888428 0 0.82055664 0.1786499 1.1167603 0.49667358c0.2962036 0.31799316 0.46258545 0.7492981 0.46258545 1.1990356l0 0c0 0.93652344 -0.7070923 1.6957092 -1.5793457 1.6957092l0 0c-0.8722534 0 -1.5793457 -0.7591858 -1.5793457 -1.6957092z" fill-rule="evenodd"/>
        <path stroke="#000000" stroke-width="1.0" stroke-linejoin="round" stroke-linecap="butt" d="m699.8973 280.91833l0 0c0 -0.9364929 0.7070923 -1.6957092 1.5793457 -1.6957092l0 0c0.41888428 0 0.82055664 0.1786499 1.1167603 0.49667358c0.2962036 0.31799316 0.46258545 0.7492981 0.46258545 1.1990356l0 0c0 0.93652344 -0.7070923 1.6957092 -1.5793457 1.6957092l0 0c-0.8722534 0 -1.5793457 -0.7591858 -1.5793457 -1.6957092z" fill-rule="evenodd"/>
        <path fill="#000000" d="m693.8614 286.87494l0 0c0 -0.93652344 0.7070923 -1.6957092 1.5793457 -1.6957092l0 0c0.41888428 0 0.82055664 0.1786499 1.1167603 0.49667358c0.2962036 0.31799316 0.46258545 0.7492981 0.46258545 1.1990356l0 0c0 0.9364929 -0.7070923 1.6957092 -1.5793457 1.6957092l0 0c-0.8722534 0 -1.5793457 -0.7592163 -1.5793457 -1.6957092z" fill-rule="evenodd"/>
        <path stroke="#000000" stroke-width="1.0" stroke-linejoin="round" stroke-linecap="butt" d="m693.8614 286.87494l0 0c0 -0.93652344 0.7070923 -1.6957092 1.5793457 -1.6957092l0 0c0.41888428 0 0.82055664 0.1786499 1.1167603 0.49667358c0.2962036 0.31799316 0.46258545 0.7492981 0.46258545 1.1990356l0 0c0 0.9364929 -0.7070923 1.6957092 -1.5793457 1.6957092l0 0c-0.8722534 0 -1.5793457 -0.7592163 -1.5793457 -1.6957092z" fill-rule="evenodd"/>
        <path fill="#000000" d="m687.8255 292.83154l0 0c0 -0.93652344 0.7070923 -1.6957092 1.5793457 -1.6957092l0 0c0.41882324 0 0.82055664 0.1786499 1.1167603 0.49667358c0.29614258 0.31799316 0.46258545 0.7492981 0.46258545 1.1990356l0 0c0 0.9364929 -0.7070923 1.6957092 -1.5793457 1.6957092l0 0c-0.8722534 0 -1.5793457 -0.7592163 -1.5793457 -1.6957092z" fill-rule="evenodd"/>
        <path stroke="#000000" stroke-width="1.0" stroke-linejoin="round" stroke-linecap="butt" d="m687.8255 292.83154l0 0c0 -0.93652344 0.7070923 -1.6957092 1.5793457 -1.6957092l0 0c0.41882324 0 0.82055664 0.1786499 1.1167603 0.49667358c0.29614258 0.31799316 0.46258545 0.7492981 0.46258545 1.1990356l0 0c0 0.9364929 -0.7070923 1.6957092 -1.5793457 1.6957092l0 0c-0.8722534 0 -1.5793457 -0.7592163 -1.5793457 -1.6957092z" fill-rule="evenodd"/>
        <path fill="#000000" fill-opacity="0.0" d="m327.71652 290.9252l0 0c0 -5.9664307 4.8367615 -10.803162 10.803162 -10.803162l0 0c2.8651733 0 5.6130066 1.1381836 7.638977 3.1641846c2.026001 2.0259705 3.1641846 4.7738037 3.1641846 7.638977l0 0c0 5.9664 -4.836731 10.803131 -10.803162 10.803131l0 0c-5.9664 0 -10.803162 -4.836731 -10.803162 -10.803131z" fill-rule="evenodd"/>
        <path stroke="#000000" stroke-width="2.0" stroke-linejoin="round" stroke-linecap="butt" d="m327.71652 290.9252l0 0c0 -5.9664307 4.8367615 -10.803162 10.803162 -10.803162l0 0c2.8651733 0 5.6130066 1.1381836 7.638977 3.1641846c2.026001 2.0259705 3.1641846 4.7738037 3.1641846 7.638977l0 0c0 5.9664 -4.836731 10.803131 -10.803162 10.803131l0 0c-5.9664 0 -10.803162 -4.836731 -10.803162 -10.803131z" fill-rule="evenodd"/>
        <path fill="#000000" fill-opacity="0.0" d="m330.8807 283.28622l15.275574 15.275574" fill-rule="evenodd"/>
        <path stroke="#000000" stroke-width="2.0" stroke-linejoin="round" stroke-linecap="butt" d="m330.8807 283.28622l15.275574 15.275574" fill-rule="evenodd"/>
        <path fill="#000000" fill-opacity="0.0" d="m330.8807 298.56418l15.275574 -15.275604" fill-rule="evenodd"/>
        <path stroke="#000000" stroke-width="2.0" stroke-linejoin="round" stroke-linecap="butt" d="m330.8807 298.56418l15.275574 -15.275604" fill-rule="evenodd"/>
        <path fill="#000000" d="m461.06445 287.04584l29.650604 0l0 1.6429749l-29.650604 0zm0 9.0763855l29.650604 0l0 1.6429443l-29.650604 0z" fill-rule="evenodd"/>
        <path stroke="#000000" stroke-width="1.0" stroke-linejoin="round" stroke-linecap="butt" d="m461.06445 287.04584l29.650604 0l0 1.6429749l-29.650604 0zm0 9.0763855l29.650604 0l0 1.6429443l-29.650604 0z" fill-rule="evenodd"/>
        <path fill="#000000" fill-opacity="0.0" d="m135.71654 267.8701l34.4252 0l0 39.590546l-34.4252 0z" fill-rule="evenodd"/>
        <path fill="#000000" d="m147.69266 294.79007l0 -13.359375l1.765625 0l0 5.484375l6.9375 0l0 -5.484375l1.765625 0l0 13.359375l-1.765625 0l0 -6.296875l-6.9375 0l0 6.296875l-1.765625 0z" fill-rule="nonzero"/>
        <path fill="#000000" fill-opacity="0.0" d="m185.39633 319.9357l34.425186 0l0 39.590546l-34.425186 0z" fill-rule="evenodd"/>
        <path fill="#000000" d="m198.16196 346.85568l-3.53125 -13.359375l1.8125 0l2.03125 8.765625q0.328125 1.375 0.5625 2.71875q0.5 -2.140625 0.59375 -2.46875l2.546875 -9.015625l2.125 0l1.921875 6.765625q0.71875 2.515625 1.03125 4.71875q0.265625 -1.265625 0.671875 -2.890625l2.09375 -8.59375l1.78125 0l-3.671875 13.359375l-1.703125 0l-2.8125 -10.171875q-0.359375 -1.28125 -0.421875 -1.5625q-0.203125 0.90625 -0.390625 1.5625l-2.828125 10.171875l-1.8125 0z" fill-rule="nonzero"/>
        <path fill="#000000" fill-opacity="0.0" d="m159.95538 202.19423l34.4252 0l0 39.590546l-34.4252 0z" fill-rule="evenodd"/>
        <path fill="#000000" d="m181.40025 224.42673l1.765625 0.453125q-0.5625 2.171875 -2.0 3.328125q-1.4375 1.140625 -3.53125 1.140625q-2.15625 0 -3.515625 -0.875q-1.34375 -0.890625 -2.0625 -2.546875q-0.703125 -1.671875 -0.703125 -3.59375q0 -2.078125 0.796875 -3.625q0.796875 -1.5625 2.265625 -2.359375q1.484375 -0.8125 3.25 -0.8125q2.0 0 3.359375 1.015625q1.375 1.015625 1.90625 2.875l-1.734375 0.40625q-0.46875 -1.453125 -1.359375 -2.109375q-0.875 -0.671875 -2.203125 -0.671875q-1.546875 0 -2.578125 0.734375q-1.03125 0.734375 -1.453125 1.984375q-0.421875 1.234375 -0.421875 2.5625q0 1.703125 0.5 2.96875q0.5 1.265625 1.546875 1.90625q1.046875 0.625 2.265625 0.625q1.484375 0 2.515625 -0.859375q1.03125 -0.859375 1.390625 -2.546875z" fill-rule="nonzero"/>
        <path fill="#000000" fill-opacity="0.0" d="m570.8793 274.02362l34.42517 0l0 39.590546l-34.42517 0z" fill-rule="evenodd"/>
        <path fill="#000000" d="m583.30756 300.94363l0 -13.359375l5.046875 0q1.328125 0 2.03125 0.125q0.96875 0.171875 1.640625 0.640625q0.671875 0.453125 1.078125 1.28125q0.40625 0.828125 0.40625 1.828125q0 1.703125 -1.09375 2.890625q-1.078125 1.171875 -3.921875 1.171875l-3.421875 0l0 5.421875l-1.765625 0zm1.765625 -7.0l3.453125 0q1.71875 0 2.4375 -0.640625q0.71875 -0.640625 0.71875 -1.796875q0 -0.84375 -0.421875 -1.4375q-0.421875 -0.59375 -1.125 -0.78125q-0.4375 -0.125 -1.640625 -0.125l-3.421875 0l0 4.78125z" fill-rule="nonzero"/>
        <path fill="#000000" fill-opacity="0.0" d="m617.62994 320.82416l34.42517 0l0 39.590546l-34.42517 0z" fill-rule="evenodd"/>
        <path fill="#000000" d="m639.1493 346.30664q1.234375 0.859375 2.265625 1.25l-0.515625 1.21875q-1.4375 -0.515625 -2.875 -1.625q-1.484375 0.828125 -3.28125 0.828125q-1.8125 0 -3.296875 -0.875q-1.46875 -0.875 -2.265625 -2.453125q-0.796875 -1.59375 -0.796875 -3.578125q0 -1.984375 0.796875 -3.59375q0.8125 -1.625 2.28125 -2.46875q1.484375 -0.859375 3.328125 -0.859375q1.84375 0 3.328125 0.890625q1.484375 0.875 2.265625 2.453125q0.78125 1.578125 0.78125 3.5625q0 1.65625 -0.5 2.96875q-0.5 1.3125 -1.515625 2.28125zm-3.890625 -2.25q1.53125 0.421875 2.515625 1.28125q1.5625 -1.421875 1.5625 -4.28125q0 -1.625 -0.546875 -2.828125q-0.546875 -1.21875 -1.609375 -1.875q-1.0625 -0.671875 -2.390625 -0.671875q-1.96875 0 -3.28125 1.359375q-1.296875 1.34375 -1.296875 4.03125q0 2.59375 1.28125 4.0q1.296875 1.390625 3.296875 1.390625q0.953125 0 1.78125 -0.359375q-0.828125 -0.53125 -1.75 -0.765625l0.4375 -1.28125z" fill-rule="nonzero"/>
        <path fill="#000000" fill-opacity="0.0" d="m592.18896 203.08267l34.425232 0l0 39.59056l-34.425232 0z" fill-rule="evenodd"/>
        <path fill="#000000" d="m604.5392 230.00267l0 -13.359375l1.78125 0l0 6.625l6.625 -6.625l2.390625 0l-5.59375 5.421875l5.84375 7.9375l-2.328125 0l-4.765625 -6.765625l-2.171875 2.140625l0 4.625l-1.78125 0z" fill-rule="nonzero"/>
        <path fill="#000000" fill-opacity="0.0" d="m336.0105 354.34515l34.4252 0l0 39.590546l-34.4252 0z" fill-rule="evenodd"/>
        <path fill="#000000" d="m347.95538 381.26514l0 -13.359375l5.921875 0q1.78125 0 2.703125 0.359375q0.9375 0.359375 1.484375 1.28125q0.5625 0.90625 0.5625 2.015625q0 1.40625 -0.921875 2.390625q-0.921875 0.96875 -2.84375 1.234375q0.703125 0.34375 1.078125 0.671875q0.765625 0.703125 1.453125 1.765625l2.328125 3.640625l-2.21875 0l-1.765625 -2.78125q-0.78125 -1.203125 -1.28125 -1.828125q-0.5 -0.640625 -0.90625 -0.890625q-0.390625 -0.265625 -0.796875 -0.359375q-0.296875 -0.078125 -0.984375 -0.078125l-2.046875 0l0 5.9375l-1.765625 0zm1.765625 -7.453125l3.796875 0q1.21875 0 1.890625 -0.25q0.6875 -0.265625 1.046875 -0.8125q0.359375 -0.546875 0.359375 -1.1875q0 -0.953125 -0.6875 -1.5625q-0.6875 -0.609375 -2.1875 -0.609375l-4.21875 0l0 4.421875z" fill-rule="nonzero"/>
        <path fill="#000000" fill-opacity="0.0" d="m369.60892 386.458l34.4252 0l0 39.590546l-34.4252 0z" fill-rule="evenodd"/>
        <path fill="#000000" d="m381.44348 409.08112l1.65625 -0.140625q0.125 1.0 0.546875 1.640625q0.4375 0.640625 1.34375 1.046875q0.921875 0.390625 2.0625 0.390625q1.0 0 1.78125 -0.296875q0.78125 -0.296875 1.15625 -0.8125q0.375 -0.53125 0.375 -1.15625q0 -0.625 -0.375 -1.09375q-0.359375 -0.46875 -1.1875 -0.796875q-0.546875 -0.203125 -2.390625 -0.640625q-1.828125 -0.453125 -2.5625 -0.84375q-0.96875 -0.5 -1.4375 -1.234375q-0.46875 -0.75 -0.46875 -1.671875q0 -1.0 0.578125 -1.875q0.578125 -0.890625 1.671875 -1.34375q1.109375 -0.453125 2.453125 -0.453125q1.484375 0 2.609375 0.484375q1.140625 0.46875 1.75 1.40625q0.609375 0.921875 0.65625 2.09375l-1.6875 0.125q-0.140625 -1.265625 -0.9375 -1.90625q-0.78125 -0.65625 -2.3125 -0.65625q-1.609375 0 -2.34375 0.59375q-0.734375 0.59375 -0.734375 1.421875q0 0.71875 0.53125 1.171875q0.5 0.46875 2.65625 0.96875q2.15625 0.484375 2.953125 0.84375q1.171875 0.53125 1.71875 1.359375q0.5625 0.828125 0.5625 1.90625q0 1.0625 -0.609375 2.015625q-0.609375 0.9375 -1.75 1.46875q-1.140625 0.515625 -2.578125 0.515625q-1.8125 0 -3.046875 -0.53125q-1.21875 -0.53125 -1.921875 -1.59375q-0.6875 -1.0625 -0.71875 -2.40625z" fill-rule="nonzero"/>
        <path fill="#000000" fill-opacity="0.0" d="m401.14172 286.93045l34.4252 0l0 39.590546l-34.4252 0z" fill-rule="evenodd"/>
        <path fill="#000000" d="m413.4919 313.85043l0 -13.359375l1.78125 0l0 6.625l6.625 -6.625l2.390625 0l-5.59375 5.421875l5.84375 7.9375l-2.328125 0l-4.765625 -6.765625l-2.171875 2.140625l0 4.625l-1.78125 0z" fill-rule="nonzero"/>
        <path fill="#000000" fill-opacity="0.0" d="m347.98425 316.9239l34.4252 0l0 39.590546l-34.4252 0z" fill-rule="evenodd"/>
        <path fill="#000000" d="m369.42914 339.15637l1.765625 0.453125q-0.5625 2.171875 -2.0 3.328125q-1.4375 1.140625 -3.53125 1.140625q-2.15625 0 -3.515625 -0.875q-1.34375 -0.890625 -2.0625 -2.546875q-0.703125 -1.671875 -0.703125 -3.59375q0 -2.078125 0.796875 -3.625q0.796875 -1.5625 2.265625 -2.359375q1.484375 -0.8125 3.25 -0.8125q2.0 0 3.359375 1.015625q1.375 1.015625 1.90625 2.875l-1.734375 0.40625q-0.46875 -1.453125 -1.359375 -2.109375q-0.875 -0.671875 -2.203125 -0.671875q-1.546875 0 -2.578125 0.734375q-1.03125 0.734375 -1.453125 1.984375q-0.421875 1.234375 -0.421875 2.5625q0 1.703125 0.5 2.96875q0.5 1.265625 1.546875 1.90625q1.046875 0.625 2.265625 0.625q1.484375 0 2.515625 -0.859375q1.03125 -0.859375 1.390625 -2.546875z" fill-rule="nonzero"/>
        <path fill="#000000" fill-opacity="0.0" d="m347.78217 144.0l34.42517 0l0 39.590546l-34.42517 0z" fill-rule="evenodd"/>
        <path fill="#000000" d="m369.22702 166.2325l1.765625 0.453125q-0.5625 2.171875 -2.0 3.328125q-1.4375 1.140625 -3.53125 1.140625q-2.15625 0 -3.515625 -0.875q-1.34375 -0.890625 -2.0625 -2.546875q-0.703125 -1.671875 -0.703125 -3.59375q0 -2.078125 0.796875 -3.625q0.796875 -1.5625 2.265625 -2.359375q1.484375 -0.8125 3.25 -0.8125q2.0 0 3.359375 1.015625q1.375 1.015625 1.90625 2.875l-1.734375 0.40625q-0.46875 -1.453125 -1.359375 -2.109375q-0.875 -0.671875 -2.203125 -0.671875q-1.546875 0 -2.578125 0.734375q-1.03125 0.734375 -1.453125 1.984375q-0.421875 1.234375 -0.421875 2.5625q0 1.703125 0.5 2.96875q0.5 1.265625 1.546875 1.90625q1.046875 0.625 2.265625 0.625q1.484375 0 2.515625 -0.859375q1.03125 -0.859375 1.390625 -2.546875z" fill-rule="nonzero"/>
        <path fill="#000000" fill-opacity="0.0" d="m347.98425 220.71654l34.4252 0l0 39.59056l-34.4252 0z" fill-rule="evenodd"/>
        <path fill="#000000" d="m369.42914 242.94904l1.765625 0.453125q-0.5625 2.171875 -2.0 3.328125q-1.4375 1.140625 -3.53125 1.140625q-2.15625 0 -3.515625 -0.875q-1.34375 -0.890625 -2.0625 -2.546875q-0.703125 -1.671875 -0.703125 -3.59375q0 -2.078125 0.796875 -3.625q0.796875 -1.5625 2.265625 -2.359375q1.484375 -0.8125 3.25 -0.8125q2.0 0 3.359375 1.015625q1.375 1.015625 1.90625 2.875l-1.734375 0.40625q-0.46875 -1.453125 -1.359375 -2.109375q-0.875 -0.671875 -2.203125 -0.671875q-1.546875 0 -2.578125 0.734375q-1.03125 0.734375 -1.453125 1.984375q-0.421875 1.234375 -0.421875 2.5625q0 1.703125 0.5 2.96875q0.5 1.265625 1.546875 1.90625q1.046875 0.625 2.265625 0.625q1.484375 0 2.515625 -0.859375q1.03125 -0.859375 1.390625 -2.546875z" fill-rule="nonzero"/>
        <path fill="#000000" fill-opacity="0.0" d="m151.71654 349.75986l135.52754 0l0 53.322815l-135.52754 0z" fill-rule="evenodd"/>
        <path fill="#000000" d="m170.04732 376.67984l0 -13.359375l1.765625 0l0 13.359375l-1.765625 0zm4.683304 0l0 -9.671875l1.46875 0l0 1.375q1.0625 -1.59375 3.078125 -1.59375q0.875 0 1.609375 0.3125q0.734375 0.3125 1.09375 0.828125q0.375 0.5 0.515625 1.203125q0.09375 0.453125 0.09375 1.59375l0 5.953125l-1.640625 0l0 -5.890625q0 -1.0 -0.203125 -1.484375q-0.1875 -0.5 -0.671875 -0.796875q-0.484375 -0.296875 -1.140625 -0.296875q-1.046875 0 -1.8125 0.671875q-0.75 0.65625 -0.75 2.515625l0 5.28125l-1.640625 0zm10.375717 3.703125l0 -13.375l1.484375 0l0 1.25q0.53125 -0.734375 1.1875 -1.09375q0.671875 -0.375 1.625 -0.375q1.234375 0 2.171875 0.640625q0.953125 0.625 1.4375 1.796875q0.484375 1.15625 0.484375 2.546875q0 1.484375 -0.53125 2.671875q-0.53125 1.1875 -1.546875 1.828125q-1.015625 0.625 -2.140625 0.625q-0.8125 0 -1.46875 -0.34375q-0.65625 -0.34375 -1.0625 -0.875l0 4.703125l-1.640625 0zm1.484375 -8.484375q0 1.859375 0.75 2.765625q0.765625 0.890625 1.828125 0.890625q1.09375 0 1.875 -0.921875q0.78125 -0.9375 0.78125 -2.875q0 -1.84375 -0.765625 -2.765625q-0.75 -0.921875 -1.8125 -0.921875q-1.046875 0 -1.859375 0.984375q-0.796875 0.96875 -0.796875 2.84375zm15.219467 4.78125l0 -1.421875q-1.125 1.640625 -3.0625 1.640625q-0.859375 0 -1.609375 -0.328125q-0.734375 -0.328125 -1.09375 -0.828125q-0.359375 -0.5 -0.5 -1.21875q-0.109375 -0.46875 -0.109375 -1.53125l0 -5.984375l1.640625 0l0 5.359375q0 1.28125 0.109375 1.734375q0.15625 0.640625 0.65625 1.015625q0.5 0.375 1.234375 0.375q0.734375 0 1.375 -0.375q0.65625 -0.390625 0.921875 -1.03125q0.265625 -0.65625 0.265625 -1.890625l0 -5.1875l1.640625 0l0 9.671875l-1.46875 0zm7.625717 -1.46875l0.234375 1.453125q-0.6875 0.140625 -1.234375 0.140625q-0.890625 0 -1.390625 -0.28125q-0.484375 -0.28125 -0.6875 -0.734375q-0.203125 -0.46875 -0.203125 -1.9375l0 -5.578125l-1.203125 0l0 -1.265625l1.203125 0l0 -2.390625l1.625 -0.984375l0 3.375l1.65625 0l0 1.265625l-1.65625 0l0 5.671875q0 0.6875 0.078125 0.890625q0.09375 0.203125 0.28125 0.328125q0.203125 0.109375 0.578125 0.109375q0.265625 0 0.71875 -0.0625zm10.060623 1.46875l0 -11.78125l-4.40625 0l0 -1.578125l10.578125 0l0 1.578125l-4.40625 0l0 11.78125l-1.765625 0zm12.34259 -3.109375l1.6875 0.203125q-0.40625 1.484375 -1.484375 2.3125q-1.078125 0.8125 -2.765625 0.8125q-2.125 0 -3.375 -1.296875q-1.234375 -1.3125 -1.234375 -3.671875q0 -2.453125 1.25 -3.796875q1.265625 -1.34375 3.265625 -1.34375q1.9375 0 3.15625 1.328125q1.234375 1.3125 1.234375 3.703125q0 0.15625 0 0.4375l-7.21875 0q0.09375 1.59375 0.90625 2.453125q0.8125 0.84375 2.015625 0.84375q0.90625 0 1.546875 -0.46875q0.640625 -0.484375 1.015625 -1.515625zm-5.390625 -2.65625l5.40625 0q-0.109375 -1.21875 -0.625 -1.828125q-0.78125 -0.953125 -2.03125 -0.953125q-1.125 0 -1.90625 0.765625q-0.765625 0.75 -0.84375 2.015625zm9.141342 5.765625l0 -9.671875l1.46875 0l0 1.375q1.0625 -1.59375 3.078125 -1.59375q0.875 0 1.609375 0.3125q0.734375 0.3125 1.09375 0.828125q0.375 0.5 0.515625 1.203125q0.09375 0.453125 0.09375 1.59375l0 5.953125l-1.640625 0l0 -5.890625q0 -1.0 -0.203125 -1.484375q-0.1875 -0.5 -0.671875 -0.796875q-0.484375 -0.296875 -1.140625 -0.296875q-1.046875 0 -1.8125 0.671875q-0.75 0.65625 -0.75 2.515625l0 5.28125l-1.640625 0zm9.719467 -2.890625l1.625 -0.25q0.125 0.96875 0.75 1.5q0.625 0.515625 1.75 0.515625q1.125 0 1.671875 -0.453125q0.546875 -0.46875 0.546875 -1.09375q0 -0.546875 -0.484375 -0.875q-0.328125 -0.21875 -1.671875 -0.546875q-1.8125 -0.46875 -2.515625 -0.796875q-0.6875 -0.328125 -1.046875 -0.90625q-0.359375 -0.59375 -0.359375 -1.3125q0 -0.640625 0.296875 -1.1875q0.296875 -0.5625 0.8125 -0.921875q0.375 -0.28125 1.03125 -0.46875q0.671875 -0.203125 1.421875 -0.203125q1.140625 0 2.0 0.328125q0.859375 0.328125 1.265625 0.890625q0.421875 0.5625 0.578125 1.5l-1.609375 0.21875q-0.109375 -0.75 -0.640625 -1.171875q-0.515625 -0.421875 -1.46875 -0.421875q-1.140625 0 -1.625 0.375q-0.46875 0.375 -0.46875 0.875q0 0.3125 0.1875 0.578125q0.203125 0.265625 0.640625 0.4375q0.234375 0.09375 1.4375 0.421875q1.75 0.453125 2.4375 0.75q0.6875 0.296875 1.078125 0.859375q0.390625 0.5625 0.390625 1.40625q0 0.828125 -0.484375 1.546875q-0.46875 0.71875 -1.375 1.125q-0.90625 0.390625 -2.046875 0.390625q-1.875 0 -2.875 -0.78125q-0.984375 -0.78125 -1.25 -2.328125zm9.375 -1.953125q0 -2.6875 1.484375 -3.96875q1.25 -1.078125 3.046875 -1.078125q2.0 0 3.265625 1.3125q1.265625 1.296875 1.265625 3.609375q0 1.859375 -0.5625 2.9375q-0.5625 1.0625 -1.640625 1.65625q-1.0625 0.59375 -2.328125 0.59375q-2.03125 0 -3.28125 -1.296875q-1.25 -1.3125 -1.25 -3.765625zm1.6875 0q0 1.859375 0.796875 2.796875q0.8125 0.921875 2.046875 0.921875q1.21875 0 2.03125 -0.921875q0.8125 -0.9375 0.8125 -2.84375q0 -1.796875 -0.8125 -2.71875q-0.8125 -0.921875 -2.03125 -0.921875q-1.234375 0 -2.046875 0.921875q-0.796875 0.90625 -0.796875 2.765625zm9.281952 4.84375l0 -9.671875l1.46875 0l0 1.46875q0.5625 -1.03125 1.03125 -1.359375q0.484375 -0.328125 1.0625 -0.328125q0.828125 0 1.6875 0.53125l-0.5625 1.515625q-0.609375 -0.359375 -1.203125 -0.359375q-0.546875 0 -0.96875 0.328125q-0.421875 0.328125 -0.609375 0.890625q-0.28125 0.875 -0.28125 1.921875l0 5.0625l-1.625 0z" fill-rule="nonzero"/>
        <path fill="#000000" fill-opacity="0.0" d="m323.6063 413.75986l143.52756 0l0 37.322815l-143.52756 0z" fill-rule="evenodd"/>
        <path fill="#000000" d="m371.5086 440.67984l0 -13.359375l9.015625 0l0 1.578125l-7.25 0l0 4.140625l6.265625 0l0 1.578125l-6.265625 0l0 6.0625l-1.765625 0zm11.099091 -11.46875l0 -1.890625l1.640625 0l0 1.890625l-1.640625 0zm0 11.46875l0 -9.671875l1.640625 0l0 9.671875l-1.640625 0zm4.0979614 0l0 -13.359375l1.640625 0l0 13.359375l-1.640625 0zm7.769806 -1.46875l0.234375 1.453125q-0.6875 0.140625 -1.234375 0.140625q-0.890625 0 -1.390625 -0.28125q-0.484375 -0.28125 -0.6875 -0.734375q-0.203125 -0.46875 -0.203125 -1.9375l0 -5.578125l-1.203125 0l0 -1.265625l1.203125 0l0 -2.390625l1.625 -0.984375l0 3.375l1.65625 0l0 1.265625l-1.65625 0l0 5.671875q0 0.6875 0.078125 0.890625q0.09375 0.203125 0.28125 0.328125q0.203125 0.109375 0.578125 0.109375q0.265625 0 0.71875 -0.0625zm8.230194 -1.640625l1.6875 0.203125q-0.40625 1.484375 -1.484375 2.3125q-1.078125 0.8125 -2.765625 0.8125q-2.125 0 -3.375 -1.296875q-1.234375 -1.3125 -1.234375 -3.671875q0 -2.453125 1.25 -3.796875q1.265625 -1.34375 3.265625 -1.34375q1.9375 0 3.15625 1.328125q1.234375 1.3125 1.234375 3.703125q0 0.15625 0 0.4375l-7.21875 0q0.09375 1.59375 0.90625 2.453125q0.8125 0.84375 2.015625 0.84375q0.90625 0 1.546875 -0.46875q0.640625 -0.484375 1.015625 -1.515625zm-5.390625 -2.65625l5.40625 0q-0.109375 -1.21875 -0.625 -1.828125q-0.78125 -0.953125 -2.03125 -0.953125q-1.125 0 -1.90625 0.765625q-0.765625 0.75 -0.84375 2.015625zm9.125702 5.765625l0 -9.671875l1.46875 0l0 1.46875q0.5625 -1.03125 1.03125 -1.359375q0.484375 -0.328125 1.0625 -0.328125q0.828125 0 1.6875 0.53125l-0.5625 1.515625q-0.609375 -0.359375 -1.203125 -0.359375q-0.546875 0 -0.96875 0.328125q-0.421875 0.328125 -0.609375 0.890625q-0.28125 0.875 -0.28125 1.921875l0 5.0625l-1.625 0zm5.572052 -2.890625l1.625 -0.25q0.125 0.96875 0.75 1.5q0.625 0.515625 1.75 0.515625q1.125 0 1.671875 -0.453125q0.546875 -0.46875 0.546875 -1.09375q0 -0.546875 -0.484375 -0.875q-0.328125 -0.21875 -1.671875 -0.546875q-1.8125 -0.46875 -2.515625 -0.796875q-0.6875 -0.328125 -1.046875 -0.90625q-0.359375 -0.59375 -0.359375 -1.3125q0 -0.640625 0.296875 -1.1875q0.296875 -0.5625 0.8125 -0.921875q0.375 -0.28125 1.03125 -0.46875q0.671875 -0.203125 1.421875 -0.203125q1.140625 0 2.0 0.328125q0.859375 0.328125 1.265625 0.890625q0.421875 0.5625 0.578125 1.5l-1.609375 0.21875q-0.109375 -0.75 -0.640625 -1.171875q-0.515625 -0.421875 -1.46875 -0.421875q-1.140625 0 -1.625 0.375q-0.46875 0.375 -0.46875 0.875q0 0.3125 0.1875 0.578125q0.203125 0.265625 0.640625 0.4375q0.234375 0.09375 1.4375 0.421875q1.75 0.453125 2.4375 0.75q0.6875 0.296875 1.078125 0.859375q0.390625 0.5625 0.390625 1.40625q0 0.828125 -0.484375 1.546875q-0.46875 0.71875 -1.375 1.125q-0.90625 0.390625 -2.046875 0.390625q-1.875 0 -2.875 -0.78125q-0.984375 -0.78125 -1.25 -2.328125z" fill-rule="nonzero"/>
        <path fill="#000000" fill-opacity="0.0" d="m576.18896 349.75986l151.52759 0l0 53.322815l-151.52759 0z" fill-rule="evenodd"/>
        <path fill="#000000" d="m594.4359 370.17984q0 -3.328125 1.78125 -5.203125q1.78125 -1.890625 4.609375 -1.890625q1.84375 0 3.328125 0.890625q1.484375 0.875 2.265625 2.46875q0.78125 1.578125 0.78125 3.578125q0 2.03125 -0.828125 3.640625q-0.8125 1.59375 -2.3125 2.421875q-1.5 0.828125 -3.25 0.828125q-1.875 0 -3.359375 -0.90625q-1.484375 -0.921875 -2.25 -2.5q-0.765625 -1.578125 -0.765625 -3.328125zm1.8125 0.015625q0 2.421875 1.296875 3.8125q1.296875 1.390625 3.265625 1.390625q2.0 0 3.28125 -1.40625q1.28125 -1.40625 1.28125 -3.984375q0 -1.625 -0.546875 -2.84375q-0.546875 -1.21875 -1.609375 -1.875q-1.0625 -0.671875 -2.375 -0.671875q-1.890625 0 -3.25 1.296875q-1.34375 1.28125 -1.34375 4.28125zm19.355164 6.484375l0 -1.421875q-1.125 1.640625 -3.0625 1.640625q-0.859375 0 -1.609375 -0.328125q-0.734375 -0.328125 -1.09375 -0.828125q-0.359375 -0.5 -0.5 -1.21875q-0.109375 -0.46875 -0.109375 -1.53125l0 -5.984375l1.640625 0l0 5.359375q0 1.28125 0.109375 1.734375q0.15625 0.640625 0.65625 1.015625q0.5 0.375 1.234375 0.375q0.734375 0 1.375 -0.375q0.65625 -0.390625 0.921875 -1.03125q0.265625 -0.65625 0.265625 -1.890625l0 -5.1875l1.640625 0l0 9.671875l-1.46875 0zm7.6257324 -1.46875l0.234375 1.453125q-0.6875 0.140625 -1.234375 0.140625q-0.890625 0 -1.390625 -0.28125q-0.484375 -0.28125 -0.6875 -0.734375q-0.203125 -0.46875 -0.203125 -1.9375l0 -5.578125l-1.203125 0l0 -1.265625l1.203125 0l0 -2.390625l1.625 -0.984375l0 3.375l1.65625 0l0 1.265625l-1.65625 0l0 5.671875q0 0.6875 0.078125 0.890625q0.09375 0.203125 0.28125 0.328125q0.203125 0.109375 0.578125 0.109375q0.265625 0 0.71875 -0.0625zm1.6051636 5.171875l0 -13.375l1.484375 0l0 1.25q0.53125 -0.734375 1.1875 -1.09375q0.671875 -0.375 1.625 -0.375q1.234375 0 2.171875 0.640625q0.953125 0.625 1.4375 1.796875q0.484375 1.15625 0.484375 2.546875q0 1.484375 -0.53125 2.671875q-0.53125 1.1875 -1.546875 1.828125q-1.015625 0.625 -2.140625 0.625q-0.8125 0 -1.46875 -0.34375q-0.65625 -0.34375 -1.0625 -0.875l0 4.703125l-1.640625 0zm1.484375 -8.484375q0 1.859375 0.75 2.765625q0.765625 0.890625 1.828125 0.890625q1.09375 0 1.875 -0.921875q0.78125 -0.9375 0.78125 -2.875q0 -1.84375 -0.765625 -2.765625q-0.75 -0.921875 -1.8125 -0.921875q-1.046875 0 -1.859375 0.984375q-0.796875 0.96875 -0.796875 2.84375zm15.219482 4.78125l0 -1.421875q-1.125 1.640625 -3.0625 1.640625q-0.859375 0 -1.609375 -0.328125q-0.734375 -0.328125 -1.09375 -0.828125q-0.359375 -0.5 -0.5 -1.21875q-0.109375 -0.46875 -0.109375 -1.53125l0 -5.984375l1.640625 0l0 5.359375q0 1.28125 0.109375 1.734375q0.15625 0.640625 0.65625 1.015625q0.5 0.375 1.234375 0.375q0.734375 0 1.375 -0.375q0.65625 -0.390625 0.921875 -1.03125q0.265625 -0.65625 0.265625 -1.890625l0 -5.1875l1.640625 0l0 9.671875l-1.46875 0zm7.6257324 -1.46875l0.234375 1.453125q-0.6875 0.140625 -1.234375 0.140625q-0.890625 0 -1.390625 -0.28125q-0.484375 -0.28125 -0.6875 -0.734375q-0.203125 -0.46875 -0.203125 -1.9375l0 -5.578125l-1.203125 0l0 -1.265625l1.203125 0l0 -2.390625l1.625 -0.984375l0 3.375l1.65625 0l0 1.265625l-1.65625 0l0 5.671875q0 0.6875 0.078125 0.890625q0.09375 0.203125 0.28125 0.328125q0.203125 0.109375 0.578125 0.109375q0.265625 0 0.71875 -0.0625zm10.060608 1.46875l0 -11.78125l-4.40625 0l0 -1.578125l10.578125 0l0 1.578125l-4.40625 0l0 11.78125l-1.765625 0zm12.34259 -3.109375l1.6875 0.203125q-0.40625 1.484375 -1.484375 2.3125q-1.078125 0.8125 -2.765625 0.8125q-2.125 0 -3.375 -1.296875q-1.234375 -1.3125 -1.234375 -3.671875q0 -2.453125 1.25 -3.796875q1.265625 -1.34375 3.265625 -1.34375q1.9375 0 3.15625 1.328125q1.234375 1.3125 1.234375 3.703125q0 0.15625 0 0.4375l-7.21875 0q0.09375 1.59375 0.90625 2.453125q0.8125 0.84375 2.015625 0.84375q0.90625 0 1.546875 -0.46875q0.640625 -0.484375 1.015625 -1.515625zm-5.390625 -2.65625l5.40625 0q-0.109375 -1.21875 -0.625 -1.828125q-0.78125 -0.953125 -2.03125 -0.953125q-1.125 0 -1.90625 0.765625q-0.765625 0.75 -0.84375 2.015625zm9.141357 5.765625l0 -9.671875l1.46875 0l0 1.375q1.0625 -1.59375 3.078125 -1.59375q0.875 0 1.609375 0.3125q0.734375 0.3125 1.09375 0.828125q0.375 0.5 0.515625 1.203125q0.09375 0.453125 0.09375 1.59375l0 5.953125l-1.640625 0l0 -5.890625q0 -1.0 -0.203125 -1.484375q-0.1875 -0.5 -0.671875 -0.796875q-0.484375 -0.296875 -1.140625 -0.296875q-1.046875 0 -1.8125 0.671875q-0.75 0.65625 -0.75 2.515625l0 5.28125l-1.640625 0zm9.719482 -2.890625l1.625 -0.25q0.125 0.96875 0.75 1.5q0.625 0.515625 1.75 0.515625q1.125 0 1.671875 -0.453125q0.546875 -0.46875 0.546875 -1.09375q0 -0.546875 -0.484375 -0.875q-0.328125 -0.21875 -1.671875 -0.546875q-1.8125 -0.46875 -2.515625 -0.796875q-0.6875 -0.328125 -1.046875 -0.90625q-0.359375 -0.59375 -0.359375 -1.3125q0 -0.640625 0.296875 -1.1875q0.296875 -0.5625 0.8125 -0.921875q0.375 -0.28125 1.03125 -0.46875q0.671875 -0.203125 1.421875 -0.203125q1.140625 0 2.0 0.328125q0.859375 0.328125 1.265625 0.890625q0.421875 0.5625 0.578125 1.5l-1.609375 0.21875q-0.109375 -0.75 -0.640625 -1.171875q-0.515625 -0.421875 -1.46875 -0.421875q-1.140625 0 -1.625 0.375q-0.46875 0.375 -0.46875 0.875q0 0.3125 0.1875 0.578125q0.203125 0.265625 0.640625 0.4375q0.234375 0.09375 1.4375 0.421875q1.75 0.453125 2.4375 0.75q0.6875 0.296875 1.078125 0.859375q0.390625 0.5625 0.390625 1.40625q0 0.828125 -0.484375 1.546875q-0.46875 0.71875 -1.375 1.125q-0.90625 0.390625 -2.046875 0.390625q-1.875 0 -2.875 -0.78125q-0.984375 -0.78125 -1.25 -2.328125zm9.375 -1.953125q0 -2.6875 1.484375 -3.96875q1.25 -1.078125 3.046875 -1.078125q2.0 0 3.265625 1.3125q1.265625 1.296875 1.265625 3.609375q0 1.859375 -0.5625 2.9375q-0.5625 1.0625 -1.640625 1.65625q-1.0625 0.59375 -2.328125 0.59375q-2.03125 0 -3.28125 -1.296875q-1.25 -1.3125 -1.25 -3.765625zm1.6875 0q0 1.859375 0.796875 2.796875q0.8125 0.921875 2.046875 0.921875q1.21875 0 2.03125 -0.921875q0.8125 -0.9375 0.8125 -2.84375q0 -1.796875 -0.8125 -2.71875q-0.8125 -0.921875 -2.03125 -0.921875q-1.234375 0 -2.046875 0.921875q-0.796875 0.90625 -0.796875 2.765625zm9.281921 4.84375l0 -9.671875l1.46875 0l0 1.46875q0.5625 -1.03125 1.03125 -1.359375q0.484375 -0.328125 1.0625 -0.328125q0.828125 0 1.6875 0.53125l-0.5625 1.515625q-0.609375 -0.359375 -1.203125 -0.359375q-0.546875 0 -0.96875 0.328125q-0.421875 0.328125 -0.609375 0.890625q-0.28125 0.875 -0.28125 1.921875l0 5.0625l-1.625 0z" fill-rule="nonzero"/>
        <path fill="#000000" fill-opacity="0.0" d="m135.71654 231.08324l0 0c0 -15.464279 12.53627 -28.000565 28.000565 -28.000565l111.99887 0l0 0c7.4262085 0 14.548279 2.950058 19.799377 8.201172c5.251129 5.251129 8.201172 12.373184 8.201172 19.799393l0 127.998886c0 15.464264 -12.536255 28.00055 -28.00055 28.00055l-111.99887 0c-15.464294 0 -28.000565 -12.536285 -28.000565 -28.00055z" fill-rule="evenodd"/>
        <path fill="#000000" fill-opacity="0.0" d="m163.7171 387.08267c-15.464294 0 -28.000565 -12.536285 -28.000565 -28.00055l0 -127.998886l0 0c0 -15.464279 12.53627 -28.000565 28.000565 -28.000565m111.99887 0l0 0c7.4262085 0 14.548279 2.950058 19.799377 8.201172c5.251129 5.251129 8.201172 12.373184 8.201172 19.799393l0 127.998886c0 15.464264 -12.536255 28.00055 -28.00055 28.00055" fill-rule="evenodd"/>
        <path stroke="#000000" stroke-width="1.0" stroke-linejoin="round" stroke-linecap="butt" d="m163.7171 387.08267c-15.464294 0 -28.000565 -12.536285 -28.000565 -28.00055l0 -127.998886l0 0c0 -15.464279 12.53627 -28.000565 28.000565 -28.000565m111.99887 0l0 0c7.4262085 0 14.548279 2.950058 19.799377 8.201172c5.251129 5.251129 8.201172 12.373184 8.201172 19.799393l0 127.998886c0 15.464264 -12.536255 28.00055 -28.00055 28.00055" fill-rule="evenodd"/>
        <path fill="#000000" fill-opacity="0.0" d="m496.0 267.08267l39.716553 0l0 48.0l-39.716553 0z" fill-rule="evenodd"/>
        <path fill="#000000" d="m509.0204 299.12268l0 -17.1875l2.328125 0l9.03125 13.5l0 -13.5l2.171875 0l0 17.1875l-2.328125 0l-9.015625 -13.5l0 13.5l-2.1875 0z" fill-rule="nonzero"/>
        <path fill="#000000" fill-opacity="0.0" d="m567.71655 231.08324l0 0c0 -15.464279 12.536255 -28.000565 28.00055 -28.000565l111.9989 0l0 0c7.4262085 0 14.548218 2.950058 19.799377 8.201172c5.2510986 5.251129 8.201172 12.373184 8.201172 19.799393l0 127.998886c0 15.464264 -12.536316 28.00055 -28.00055 28.00055l-111.9989 0c-15.464294 0 -28.00055 -12.536285 -28.00055 -28.00055z" fill-rule="evenodd"/>
        <path fill="#000000" fill-opacity="0.0" d="m595.7171 387.08267c-15.464294 0 -28.00055 -12.536285 -28.00055 -28.00055l0 -127.998886l0 0c0 -15.464279 12.536255 -28.000565 28.00055 -28.000565m111.9989 0l0 0c7.4262085 0 14.548218 2.950058 19.799377 8.201172c5.2510986 5.251129 8.201172 12.373184 8.201172 19.799393l0 127.998886c0 15.464264 -12.536316 28.00055 -28.00055 28.00055" fill-rule="evenodd"/>
        <path stroke="#000000" stroke-width="1.0" stroke-linejoin="round" stroke-linecap="butt" d="m595.7171 387.08267c-15.464294 0 -28.00055 -12.536285 -28.00055 -28.00055l0 -127.998886l0 0c0 -15.464279 12.536255 -28.000565 28.00055 -28.000565m111.9989 0l0 0c7.4262085 0 14.548218 2.950058 19.799377 8.201172c5.2510986 5.251129 8.201172 12.373184 8.201172 19.799393l0 127.998886c0 15.464264 -12.536316 28.00055 -28.00055 28.00055" fill-rule="evenodd"/>
        <path fill="#000000" d="m534.8058 283.36462l1.192688 -1.192688l7.7180786 7.718048l7.7180176 -7.718048l1.192688 1.192688l-7.7180176 7.718048l7.7180176 7.718048l-1.192688 1.192688l-7.7180176 -7.718048l-7.7180786 7.718048l-1.192688 -1.192688l7.7180786 -7.718048z" fill-rule="evenodd"/>
        <path stroke="#000000" stroke-width="1.0" stroke-linejoin="round" stroke-linecap="butt" d="m534.8058 283.36462l1.192688 -1.192688l7.7180786 7.718048l7.7180176 -7.718048l1.192688 1.192688l-7.7180176 7.718048l7.7180176 7.718048l-1.192688 1.192688l-7.7180176 -7.718048l-7.7180786 7.718048l-1.192688 -1.192688l7.7180786 -7.718048z" fill-rule="evenodd"/>
        <path fill="#000000" fill-opacity="0.0" d="m64.0 267.08267l39.716537 0l0 48.0l-39.716537 0z" fill-rule="evenodd"/>
        <path fill="#000000" d="m77.02038 299.12268l0 -17.1875l2.328125 0l9.03125 13.5l0 -13.5l2.171875 0l0 17.1875l-2.328125 0l-9.015625 -13.5l0 13.5l-2.1875 0z" fill-rule="nonzero"/>
        <path fill="#000000" d="m102.805786 283.36462l1.1926956 -1.192688l7.7180557 7.718048l7.7180557 -7.718048l1.192688 1.192688l-7.7180557 7.718048l7.7180557 7.718048l-1.192688 1.192688l-7.7180557 -7.718048l-7.7180557 7.718048l-1.1926956 -1.192688l7.7180557 -7.718048z" fill-rule="evenodd"/>
        <path stroke="#000000" stroke-width="1.0" stroke-linejoin="round" stroke-linecap="butt" d="m102.805786 283.36462l1.1926956 -1.192688l7.7180557 7.718048l7.7180557 -7.718048l1.192688 1.192688l-7.7180557 7.718048l7.7180557 7.718048l-1.192688 1.192688l-7.7180557 -7.718048l-7.7180557 7.718048l-1.1926956 -1.192688l7.7180557 -7.718048z" fill-rule="evenodd"/>
      </g>
    </g>
  </g>
  <g/>
</svg>
